<svg width="60" height="60" viewBox="0 0 60 60" fill="none" xmlns="http://www.w3.org/2000/svg">
<path fill-rule="evenodd" clip-rule="evenodd" d="M49.5414 36.0478C47.2161 44.6615 39.3464 50.998 29.9999 50.998C20.7231 50.998 12.9011 44.7555 10.5113 36.2398C10.4607 35.7922 10.1737 35.4163 9.7782 35.2398C9.52079 35.1201 9.22141 35.087 8.92589 35.1667C8.29799 35.3362 7.91154 35.955 8.01933 36.5834L8.01933 47.1887C8.01933 47.879 8.57897 48.4387 9.26933 48.4387C9.95969 48.4387 10.5193 47.879 10.5193 47.1887L10.5193 42.494C14.5001 49.0883 21.734 53.498 29.9999 53.498C40.5047 53.498 49.3428 46.376 51.955 36.6993C52.1349 36.0328 51.7405 35.3467 51.074 35.1667C50.4075 34.9868 49.7213 35.3813 49.5414 36.0478Z" fill="#03299A"/>
<path fill-rule="evenodd" clip-rule="evenodd" d="M49.5414 36.0478C47.2161 44.6615 39.3464 50.998 29.9999 50.998C20.7231 50.998 12.9011 44.7555 10.5113 36.2398C10.4607 35.7922 10.1737 35.4163 9.7782 35.2398C9.52079 35.1201 9.22141 35.087 8.92589 35.1667C8.29799 35.3362 7.91154 35.955 8.01933 36.5834L8.01933 47.1887C8.01933 47.879 8.57897 48.4387 9.26933 48.4387C9.95969 48.4387 10.5193 47.879 10.5193 47.1887L10.5193 42.494C14.5001 49.0883 21.734 53.498 29.9999 53.498C40.5047 53.498 49.3428 46.376 51.955 36.6993C52.1349 36.0328 51.7405 35.3467 51.074 35.1667C50.4075 34.9868 49.7213 35.3813 49.5414 36.0478Z" fill="url(#paint0_linear_346_181)"/>
<path fill-rule="evenodd" clip-rule="evenodd" d="M49.5401 24.4502C47.2148 15.8365 39.3451 9.49993 29.9986 9.49993C20.6521 9.49993 12.7824 15.8365 10.4571 24.4502C10.2772 25.1167 9.59105 25.5112 8.92455 25.3312C8.25806 25.1513 7.86361 24.4652 8.04353 23.7987C10.6558 14.122 19.4939 6.99993 29.9986 6.99993C38.2969 6.99993 45.5552 11.4443 49.5259 18.0816L49.5259 13.3176C49.5259 12.6272 50.0855 12.0676 50.7759 12.0676C51.4662 12.0676 52.0259 12.6272 52.0259 13.3176L52.0259 24.1244C52.0259 24.8144 51.4667 25.3739 50.7768 25.3744C50.2139 25.3883 49.6933 25.018 49.5401 24.4502Z" fill="black"/>
<path fill-rule="evenodd" clip-rule="evenodd" d="M49.5401 24.4502C47.2148 15.8365 39.3451 9.49993 29.9986 9.49993C20.6521 9.49993 12.7824 15.8365 10.4571 24.4502C10.2772 25.1167 9.59105 25.5112 8.92455 25.3312C8.25806 25.1513 7.86361 24.4652 8.04353 23.7987C10.6558 14.122 19.4939 6.99993 29.9986 6.99993C38.2969 6.99993 45.5552 11.4443 49.5259 18.0816L49.5259 13.3176C49.5259 12.6272 50.0855 12.0676 50.7759 12.0676C51.4662 12.0676 52.0259 12.6272 52.0259 13.3176L52.0259 24.1244C52.0259 24.8144 51.4667 25.3739 50.7768 25.3744C50.2139 25.3883 49.6933 25.018 49.5401 24.4502Z" fill="url(#paint1_linear_346_181)"/>
<path d="M36.3011 22.7899C32.1928 18.6667 25.5309 18.6667 21.4227 22.7899L14.7079 29.5289C14.3109 29.9277 14.3109 30.5698 14.7079 30.9686L21.4227 37.7077C25.5309 41.8308 32.1928 41.8308 36.3011 37.7144C40.4159 33.598 40.4159 26.9131 36.3011 22.7899ZM34.7133 35.7339C31.6966 38.7621 26.8011 38.7621 23.7844 35.7339L18.8426 30.7794C18.5515 30.4887 18.5515 30.0156 18.8426 29.7182L23.7778 24.7704C26.7945 21.7422 31.69 21.7422 34.7067 24.7704C37.73 27.7985 37.73 32.7058 34.7133 35.7339Z" fill="#00B3FF"/>
<path d="M45.0985 29.5358L42.1413 26.5144C41.9627 26.3319 41.665 26.5009 41.7245 26.751C42.2339 29.0559 42.2339 31.4622 41.7245 33.7672C41.6716 34.0173 41.9693 34.1795 42.1413 34.0037L45.0985 30.9823C45.4888 30.5768 45.4888 29.9346 45.0985 29.5358Z" fill="#00B3FF"/>
<path d="M29.2845 35.5516C32.1453 35.5516 34.4645 33.1821 34.4645 30.2591C34.4645 27.3361 32.1453 24.9666 29.2845 24.9666C26.4237 24.9666 24.1045 27.3361 24.1045 30.2591C24.1045 33.1821 26.4237 35.5516 29.2845 35.5516Z" fill="#00B3FF"/>
<defs>
<linearGradient id="paint0_linear_346_181" x1="9.27866" y1="49.7104" x2="47.2181" y2="33.1159" gradientUnits="userSpaceOnUse">
<stop stop-color="#7F47FF"/>
<stop offset="1" stop-color="#42E8CD"/>
</linearGradient>
<linearGradient id="paint1_linear_346_181" x1="52.0259" y1="11.0661" x2="8.11957" y2="24.7406" gradientUnits="userSpaceOnUse">
<stop stop-color="#7F47FF"/>
<stop offset="1" stop-color="#42E8CD"/>
</linearGradient>
</defs>
</svg>
